<svg xmlns="http://www.w3.org/2000/svg" width="45.636" height="45.636" viewBox="0 0 45.636 45.636"><defs><style>.abc{fill:#f9c300;}</style></defs><g transform="translate(-0.364 -0.364)"><path class="abc" d="M22.818,45.636A22.818,22.818,0,0,1,6.683,6.683,22.83,22.83,0,0,1,34.052,2.952L30.671,6.9A17.591,17.591,0,0,0,22.818,5.07,17.748,17.748,0,1,0,40.566,22.818h5.07A22.818,22.818,0,0,1,22.818,45.636Zm-.76-12.677a2.549,2.549,0,0,1-1.8-.748L13.413,25.32a2.535,2.535,0,0,1,3.6-3.574l4.956,4.989L36.146,10.98a2.535,2.535,0,0,1,3.769,3.392L23.942,32.121a2.543,2.543,0,0,1-1.821.838Z" transform="translate(0.364 0.364)"/></g></svg>
