<svg xmlns="http://www.w3.org/2000/svg" width="151.365" height="76.297" viewBox="0 0 151.365 76.297"><defs><style>.lo{fill:#283d52;}.go{fill:none;stroke:#5fd36c;stroke-miterlimit:10;stroke-width:1.2px;}</style></defs><g transform="translate(-724.133 224.426)"><path class="lo" d="M783-134.816c-1.752,2.819-5.556,4.872-10.811,4.872-7.554,0-12.07-3.832-12.07-10.154s4.516-10.154,12.015-10.154c4.707,0,7.937,1.752,9.853,3.8l-2.682,1.916c-1.7-1.916-3.941-2.847-7.143-2.847-5.392,0-8.7,2.463-8.7,7.28s3.366,7.28,8.868,7.28c3.366,0,6.1-.876,7.5-3.065v-2.19h-7.992v-2.819H783Zm3.094-5.282c0-6.322,4.543-10.154,11.905-10.154S809.9-146.421,809.9-140.1,805.361-129.945,798-129.945,786.093-133.777,786.093-140.1Zm20.445,0c0-4.653-3.339-7.253-8.539-7.253s-8.566,2.6-8.566,7.253,3.339,7.253,8.566,7.253C803.2-132.846,806.538-135.446,806.538-140.1Zm38.888,3.859,3.038,1.506c-1.807,2.792-5.31,4.79-10.154,4.79-7.171,0-11.686-3.859-11.686-10.154s4.516-10.154,11.823-10.154c4.708,0,8.211,2.025,9.99,4.762l-3.066,1.533c-1.423-2.354-3.859-3.394-6.979-3.394-5.063,0-8.43,2.463-8.43,7.253s3.366,7.253,8.43,7.253C841.512-132.846,843.975-133.859,845.426-136.24Zm22.116,1.1H855.253l-2.436,4.625h-3.558l10.373-19.159h3.613l10.345,19.159H870Zm-1.451-2.792-4.68-8.867-4.68,8.867Zm27.946,7.417-5.939-6.952h-8.074v6.952H876.74v-19.159h13.027c4.461,0,7.746,2.135,7.746,6.1,0,3.312-2.3,5.337-5.638,5.939l6.213,7.116Zm-4.489-9.771c2.737,0,4.6-.876,4.6-3.257s-1.861-3.257-4.6-3.257H880v6.514Z" transform="translate(-22.59 -46.957)"/><path class="go" d="M784.407-167.155a23.876,23.876,0,0,0,2.6-1.486c7.115-4.8,12.06-13.488,10.838-22.209q-.027-.194-.058-.387c-.948-5.883-4.523-11.121-9.073-14.969s-10.034-6.432-15.617-8.515a59.013,59.013,0,0,0-18.672-4.158c-6.4-.2-12.979,1.221-18.272,4.828a27.262,27.262,0,0,0-11.4,21.357,32.963,32.963,0,0,0,8.71,22.9,41.817,41.817,0,0,0,21.473,12.278,38.353,38.353,0,0,0,13.459.885,32.09,32.09,0,0,0,20.118-10.761,32.09,32.09,0,0,0,7.709-21.473c-.145-6.374-1.807-13.471-6.171-18.119-5.231-5.57-13.52-8.16-21.151-8.562A42.737,42.737,0,0,0,739.213-205c-8.025,7.022-12.866,17.761-12.09,28.4s7.433,20.816,17.17,25.164a35.676,35.676,0,0,0,17.391,2.561,44.494,44.494,0,0,0,27.1-11.78A36.829,36.829,0,0,0,800.3-187.574a36.973,36.973,0,0,0-10.266-24.188c-8.794-9.308-22.467-14.035-34.964-11.243a33.232,33.232,0,0,0-15.323,8.2,32.58,32.58,0,0,0-7.639,10.723,35.234,35.234,0,0,0-2.886,14.9,18.652,18.652,0,0,0,2.664,9.586,36.668,36.668,0,0,0,6.269,8.034q.4.361.814.708a40.309,40.309,0,0,0,21.919,9.392,36.253,36.253,0,0,0,13.979-1.4,34.285,34.285,0,0,0,6.555-2.764C782.407-166.178,783.415-166.652,784.407-167.155Z"/></g></svg>
