<svg xmlns="http://www.w3.org/2000/svg" width="14.633" height="14.633" viewBox="0 0 14.633 14.633"><defs><style>.a{fill:#283d52;}</style></defs><path class="a" d="M9.816,18.133a7.316,7.316,0,1,1,7.316-7.316A7.316,7.316,0,0,1,9.816,18.133ZM13.44,10.5a.563.563,0,0,0-.563-.563H10.626V7.686a.563.563,0,0,0-.563-.563H9.5a.563.563,0,0,0-.563.563V9.937H6.686a.563.563,0,0,0-.563.563v.563a.562.562,0,0,0,.563.563H8.937v2.251a.562.562,0,0,0,.563.563h.563a.562.562,0,0,0,.563-.563V11.626h2.251a.563.563,0,0,0,.563-.563Z" transform="translate(-2.5 -3.5)"/></svg>