<svg xmlns="http://www.w3.org/2000/svg" width="437.17" height="227.89" viewBox="0 0 437.17 227.89"><defs><style>.a{fill:#283d52;}.b{fill:#f9c300;}</style></defs><g transform="translate(-689.29 -452.097)"><path class="a" d="M1072.422,329.133c-64.908-46.674-29.147-130.948-8.956-163.767s65.517,18.414,137.453,41.6,69.59-74.022,161.431-90.923,146.618,80.455,81.9,138.31c-36.888,32.977-79.929,54.044-172.468,74.783C1189.771,343.069,1100.333,349.2,1072.422,329.133Z" transform="translate(-346 338)"/><path class="b" d="M43.035,210.235c4.471-.973,8.936-1.993,13.4-3.027l.15.677c-4.483.942-8.968,1.87-13.464,2.752Zm24.95-5.758q12.888-3.1,25.727-6.4l.355,1.441q-12.915,3.036-25.873,5.874Zm37.213-9.4q12.814-3.388,25.571-6.979l.594,2.194q-12.845,3.336-25.74,6.46Zm36.979-10.243q12.718-3.694,25.36-7.624l.881,2.935q-12.748,3.686-25.564,7.115Zm36.664-11.207q12.6-4.063,25.095-8.436l1.239,3.65q-12.627,4.143-25.352,7.945ZM215.09,161.2q12.42-4.554,24.657-9.54l1.716,4.315q-12.419,4.794-25,9.087Zm35.551-14.139c8.066-3.513,16.038-7.224,23.833-11.236l2.439,4.858c-8.01,3.916-16.152,7.5-24.367,10.882Zm34.178-16.828c3.8-2.162,7.532-4.419,11.168-6.8q2.727-1.787,5.369-3.675c1.763-1.262,3.473-2.555,5.177-3.9l3.811,4.921c-1.791,1.361-3.637,2.695-5.495,3.967s-3.747,2.507-5.652,3.7c-3.809,2.386-7.692,4.622-11.622,6.755Zm30.673-21.883a190.029,190.029,0,0,0,18.233-18.593l5.237,4.553a196.663,196.663,0,0,1-19.232,18.9ZM341,80.654A179.354,179.354,0,0,0,355.007,58.8l6.694,3.714A186.65,186.65,0,0,1,346.69,85Zm19.21-32.246a170.8,170.8,0,0,0,9.01-24.258l8.027,2.377a178.919,178.919,0,0,1-9.913,25.241ZM371.978,12.92q.63-3.082,1.111-6.174,4.312,1.12,8.385,2.6-.5,2.706-1.1,5.375Z" transform="translate(689.29 448.509)"/></g></svg>